<?xml version="1.0" standalone="no"?>
<!DOCTYPE svg PUBLIC "-//W3C//DTD SVG 20010904//EN"
 "http://www.w3.org/TR/2001/REC-SVG-20010904/DTD/svg10.dtd">
<svg version="1.0" xmlns="http://www.w3.org/2000/svg"
 width="9000.000000pt" height="5294.000000pt" viewBox="0 0 9000.000000 5294.000000"
 preserveAspectRatio="xMidYMid meet">

<g transform="translate(0.000000,5294.000000) scale(0.100000,-0.100000)"
fill="#000000" stroke="none">
<path d="M52166 51941 c-901 -901 -997 -1000 -987 -1019 6 -11 24 -32 42 -46
l31 -26 3359 0 3359 0 0 -667 -1 -668 -3436 -2510 -3436 -2510 3474 -3 3474
-2 1097 1097 1098 1098 -912 5 c-889 6 -1044 11 -1096 39 -9 5 331 249 975
698 l988 690 3 2412 2 2411 -3518 0 -3517 0 -999 -999z"/>
<path d="M62150 51835 l-1105 -1105 3678 0 3677 0 0 -485 0 -485 -2373 0
-2372 0 -1053 -1053 c-578 -578 -1052 -1055 -1052 -1060 0 -4 1544 -7 3430 -7
l3430 0 0 -470 0 -470 -2683 0 -2682 0 -1110 -1110 -1110 -1110 3850 0 3850 0
923 923 922 922 0 3308 0 3307 -3558 0 -3557 0 -1105 -1105z"/>
<path d="M72328 51293 l-1108 -1108 0 -3102 0 -3102 25 -28 24 -28 1096 1095
1095 1095 0 215 0 215 773 773 772 772 960 0 960 0 1030 1030 1030 1030 -2520
0 -2520 0 -250 -250 -250 -250 -5 1375 -5 1375 -1107 -1107z"/>
<path d="M85102 51277 l-1102 -1102 0 -703 0 -702 -2087 0 -2088 0 -887 -887
-888 -888 0 -470 0 -470 867 -867 868 -868 2330 0 2330 0 908 908 907 907 0
3096 0 3096 -21 27 c-11 14 -24 26 -27 26 -4 0 -503 -496 -1110 -1103z m-1112
-4727 l0 -390 -1850 0 -1850 0 0 390 0 390 1850 0 1850 0 0 -390z"/>
<path d="M47588 46253 l-1848 -1848 0 -686 0 -686 -177 -7 c-370 -14 -1130
-26 -2363 -37 -1469 -13 -7616 -6 -9155 10 -2182 24 -3445 51 -3592 77 l-33 6
0 682 0 681 -1815 1815 -1815 1815 -40 -40 -40 -39 0 -2498 0 -2498 -13357 0
-13358 0 1855 -1855 1855 -1855 2657 0 2658 0 0 -13550 0 -13550 -4468 0
c-4020 0 -4470 -2 -4487 -15 -19 -15 66 -102 1815 -1850 l1835 -1835 16253 0
c12020 0 16259 -3 16275 -11 12 -6 32 -21 45 -32 l22 -20 0 -2401 0 -2401
1808 -1808 c994 -994 1814 -1807 1823 -1807 8 0 27 13 42 28 l27 28 2 4205 3
4204 5960 3 5960 2 1850 1850 1850 1850 -7798 0 -7797 0 0 1660 0 1660 4733 0
4732 0 1833 1833 c1007 1007 1832 1835 1832 1840 0 4 -828 7 -1840 7 l-1840 0
0 2605 0 2605 2643 0 2642 0 1780 1780 1780 1780 -4428 0 -4427 0 0 2525 0
2525 333 0 332 0 1850 1850 1850 1850 -3410 0 -3410 0 1290 1290 1290 1290
4792 0 4793 0 0 -4715 0 -4715 4730 0 4730 0 0 -2157 0 -2158 1785 1785 1785
1785 0 5163 c0 4121 3 5163 13 5167 25 8 1766 25 3692 37 3063 18 6683 -9
8135 -62 504 -19 825 -41 857 -59 31 -17 -361 -448 -1121 -1236 -440 -455
-2042 -2054 -2476 -2471 -699 -672 -1032 -974 -1073 -974 -8 0 -435 423 -949
940 l-933 940 -2560 0 -2560 0 2230 -2230 2230 -2230 -2950 -2950 -2950 -2950
2575 0 2575 0 1630 1630 1630 1630 70 0 70 0 1630 -1630 1630 -1630 2523 0
2524 0 -2889 2896 -2888 2896 -3 71 -3 72 3561 3560 3560 3560 0 50 0 50
-1838 1838 -1837 1837 -18442 0 -18443 0 -2 2540 -3 2540 -1847 -1847z
m-19636 -8310 c747 -747 1358 -1361 1358 -1365 0 -5 -1502 -8 -3337 -8 l-3338
0 1780 -1780 1780 -1780 317 0 318 0 0 -2513 0 -2514 -21 -19 c-21 -19 -116
-19 -4793 -22 l-4771 -2 1720 -1720 1720 -1720 3077 0 3078 0 0 -2730 0 -2730
-2102 0 -2103 0 1780 -1780 1780 -1780 5042 0 5043 0 0 -1609 0 -1609 -27 -6
c-16 -3 -163 -10 -328 -16 -2806 -93 -20092 -119 -22922 -34 l-223 7 0 13543
0 13544 6907 0 6908 0 1357 -1357z m17791 1262 c4 -44 10 -619 13 -1277 l6
-1198 -7666 0 -7666 0 0 1273 c0 701 3 1277 7 1280 3 4 3447 6 7652 5 l7646
-3 8 -80z m18572 -1465 c-1253 -1253 -1542 -1537 -1551 -1525 -14 19 -24 843
-24 2088 l0 977 1557 0 1558 0 -1540 -1540z m4305 -2625 l0 -1675 -1677 0
-1678 0 1675 1675 c921 921 1676 1675 1677 1675 2 0 3 -754 3 -1675z m-32200
-4609 l0 -2494 -22 -5 c-73 -18 -415 -41 -828 -57 -1141 -42 -3811 -38 -4955
8 l-170 7 -3 2505 c-1 1378 0 2511 3 2518 3 9 611 12 2990 12 l2985 0 0 -2494z
m9327 2462 c4 -7 9 -1135 11 -2505 l3 -2493 -2870 0 -2871 0 0 2505 0 2505
2859 0 c2277 0 2861 -3 2868 -12z m-9327 -11098 c0 -1446 -3 -2630 -7 -2630
-5 0 -71 -7 -148 -14 -749 -77 -3330 -100 -5290 -46 -203 5 -412 12 -462 16
l-93 6 0 2649 0 2649 3000 0 3000 0 0 -2630z m9330 -25 l0 -2645 -2839 0
-2838 0 -11 103 c-56 509 -76 1429 -69 3052 5 1110 10 1422 33 1968 l6 167
2859 0 2859 0 0 -2645z"/>
<path d="M62330 22255 l-1835 -1835 11025 0 11025 0 1803 1803 c991 991 1802
1809 1802 1818 0 9 -8 23 -18 32 -17 16 -795 17 -10993 17 l-10974 0 -1835
-1835z"/>
<path d="M55923 16668 c-992 -992 -1803 -1807 -1803 -1813 0 -5 18 -25 40 -42
l39 -33 8040 0 8041 0 0 -3560 c0 -1958 3 -3560 8 -3560 4 0 838 831 1855
1848 l1847 1847 0 1718 0 1717 5808 0 5807 0 1833 1833 c1007 1007 1832 1835
1832 1840 0 4 -7098 7 -15772 7 l-15773 0 -1802 -1802z"/>
<path d="M57907 10352 c-1005 -1005 -1827 -1830 -1827 -1835 0 -4 2001 -7
4448 -7 l4447 0 1835 1835 1835 1835 -4455 0 -4455 0 -1828 -1828z"/>
<path d="M76257 10352 c-1005 -1005 -1827 -1830 -1827 -1835 0 -4 2004 -7
4453 -7 l4452 0 1835 1835 1835 1835 -4460 0 -4460 0 -1828 -1828z"/>
</g>
</svg>
